<svg width="40" height="40" viewBox="0 0 40 40" fill="none" xmlns="http://www.w3.org/2000/svg">
<path fill-rule="evenodd" clip-rule="evenodd" d="M3.33203 20C3.33203 29.2048 10.794 36.6667 19.9987 36.6667C29.2034 36.6667 36.6654 29.2048 36.6654 20C36.6654 10.7953 29.2034 3.33337 19.9987 3.33337C10.794 3.33337 3.33203 10.7953 3.33203 20ZM6.66536 20C6.66536 12.6362 12.6349 6.66671 19.9987 6.66671C27.3625 6.66671 33.332 12.6362 33.332 20C33.332 27.3638 27.3625 33.3334 19.9987 33.3334C12.6349 33.3334 6.66536 27.3638 6.66536 20ZM29.0893 14.6739C29.0027 14.2402 28.7473 13.8586 28.3793 13.6133C28.0113 13.368 27.5609 13.279 27.1273 13.3659L22.7413 14.245C21.8388 14.4259 21.2538 15.3042 21.4347 16.2067C21.6151 17.1065 22.4886 17.6907 23.3883 17.5149L20.5754 21.1328L17.0643 18.4457C16.3562 17.9038 15.3471 18.0152 14.7742 18.6984L10.3882 23.9292C9.79682 24.6345 9.88917 25.6857 10.5945 26.2772C11.2998 26.8686 12.3511 26.7762 12.9425 26.0709L16.3043 22.0616L19.863 24.7851C20.59 25.3415 21.6297 25.2073 22.1916 24.4846L26.5336 18.9002L26.6976 19.7218C26.8777 20.6245 27.7555 21.2102 28.6582 21.0301C29.5609 20.8499 30.1466 19.9722 29.9665 19.0695L29.0893 14.6739Z" fill="white"/>
</svg>
